<svg width="1448" height="357" viewBox="0 0 1448 357" fill="none" xmlns="http://www.w3.org/2000/svg">
<g clip-path="url(#clip0_376_11625)" filter="url(#filter0_d_376_11625)">
<rect width="1440" height="349" transform="translate(4)" fill="#98C200"/>
<path fill-rule="evenodd" clip-rule="evenodd" d="M2 -2H1446V90.5702C1446.45 90.8785 1446.78 91.3712 1446.86 91.9578C1446.96 92.7348 1446.61 93.4677 1446 93.8804V351H2V207.88L-0.0934358 209.542C-0.958489 210.229 -2.21655 210.084 -2.9034 209.219C-3.59024 208.354 -3.44578 207.096 -2.58072 206.409L2 202.772V184.963C-0.864519 183.427 -2.65033 180.254 -2.25701 176.829C-1.93968 174.066 -0.27809 171.784 2 170.561V-2ZM2 176.18C1.85856 176.525 1.76158 176.896 1.71688 177.285C1.63374 178.009 1.74142 178.711 2 179.341V176.18ZM6 181.927V173.595C6.1103 173.599 6.2213 173.607 6.33283 173.62C8.61956 173.883 10.2604 175.95 9.99786 178.236C9.75918 180.315 8.03009 181.86 6 181.927ZM6 185.928C10.0374 185.863 13.4986 182.813 13.9717 178.693C14.4864 174.211 11.2706 170.161 6.78916 169.646C6.52439 169.616 6.26112 169.599 6 169.594V2H1442V90.5948L1383.54 98.4775C1382.45 98.6251 1381.68 99.6322 1381.83 100.727C1381.98 101.822 1382.98 102.589 1384.08 102.442L1442 94.6311V347H622.088C624.023 346.314 625.659 344.821 626.461 342.757C627.923 338.994 626.057 334.758 622.294 333.296C618.531 331.833 614.295 333.699 612.833 337.462C611.371 341.225 613.236 345.461 616.999 346.923C617.068 346.95 617.137 346.976 617.206 347H6V204.704L38.1605 179.169C39.0255 178.482 39.17 177.224 38.4832 176.359C37.7963 175.494 36.5382 175.349 35.6732 176.036L6 199.596V185.928ZM21.6087 10.8101C22.6252 10.3776 23.7997 10.8511 24.2321 11.8675L26.4952 17.187C26.4662 16.6509 26.5513 16.1001 26.7653 15.5693C27.5472 13.6295 29.7536 12.6908 31.6934 13.4727C33.6332 14.2546 34.5718 16.461 33.7899 18.4008C33.0081 20.3406 30.8017 21.2792 28.8619 20.4974C28.3311 20.2834 27.8752 19.9628 27.5091 19.5701L29.7722 24.8896C30.2046 25.906 29.7312 27.0805 28.7148 27.5129C27.6984 27.9454 26.5239 27.4719 26.0914 26.4555L23.8284 21.1362C23.8574 21.6723 23.7722 22.223 23.5583 22.7537C22.7764 24.6935 20.57 25.6322 18.6302 24.8503C16.6904 24.0684 15.7518 21.862 16.5336 19.9222C17.3155 17.9824 19.5219 17.0438 21.4617 17.8257C21.9925 18.0396 22.4483 18.3602 22.8144 18.7527L20.5513 13.4334C20.1189 12.417 20.5923 11.2425 21.6087 10.8101ZM1424.45 13.0308C1425.46 12.5983 1426.64 13.0718 1427.07 14.0882L1429.34 19.4078C1429.31 18.8717 1429.39 18.3209 1429.61 17.79C1430.39 15.8502 1432.59 14.9115 1434.53 15.6934C1436.47 16.4753 1437.41 18.6815 1436.63 20.6215C1435.85 22.5613 1433.64 23.4999 1431.7 22.7181C1431.17 22.5041 1430.71 22.1835 1430.35 21.7908L1432.61 27.1103C1433.04 28.1267 1432.57 29.3012 1431.55 29.7336C1430.54 30.1661 1429.36 29.6926 1428.93 28.6762L1426.67 23.3569C1426.7 23.8929 1426.61 24.4437 1426.4 24.9744C1425.62 26.9143 1423.41 27.8529 1421.47 27.071C1419.53 26.2891 1418.59 24.0827 1419.37 22.1429C1420.16 20.2031 1422.36 19.2645 1424.3 20.0464C1424.83 20.2603 1425.29 20.5808 1425.65 20.9734L1423.39 15.6541C1422.96 14.6377 1423.43 13.4632 1424.45 13.0308ZM30.198 17.1827C30.3071 17.2267 30.4313 17.1738 30.4753 17.0647C30.5193 16.9555 30.4664 16.8314 30.3573 16.7874C30.2481 16.7434 30.124 16.7962 30.08 16.9054C30.036 17.0145 30.0888 17.1387 30.198 17.1827ZM1433.04 19.4034C1433.15 19.4474 1433.27 19.3945 1433.32 19.2854C1433.36 19.1763 1433.31 19.0521 1433.2 19.0081C1433.09 18.9641 1432.96 19.0169 1432.92 19.1261C1432.88 19.2354 1432.93 19.3594 1433.04 19.4034ZM19.9663 21.5356C20.0755 21.5796 20.1996 21.5268 20.2436 21.4176C20.2876 21.3085 20.2348 21.1843 20.1256 21.1403C20.0165 21.0963 19.8923 21.1492 19.8483 21.2583C19.8043 21.3675 19.8572 21.4916 19.9663 21.5356ZM1422.81 23.7563C1422.92 23.8003 1423.04 23.7475 1423.08 23.6383C1423.13 23.5293 1423.07 23.4051 1422.97 23.361C1422.86 23.3171 1422.73 23.3698 1422.69 23.479C1422.64 23.5881 1422.7 23.7123 1422.81 23.7563ZM68.3444 52.8582C69.4445 52.7596 70.4164 53.5715 70.515 54.6716L74.8772 103.322C74.9758 104.422 74.1639 105.394 73.0638 105.493C71.9636 105.591 70.9918 104.78 70.8932 103.679L66.531 55.0288C66.4323 53.9287 67.2442 52.9569 68.3444 52.8582ZM1414.61 67.7551C1412.07 65.8196 1408.45 66.3087 1406.51 68.8476C1404.58 71.3865 1405.06 75.0137 1407.6 76.9492C1410.14 78.8847 1413.77 78.3956 1415.71 75.8567C1417.64 73.3179 1417.15 69.6907 1414.61 67.7551ZM1403.33 66.4225C1406.6 62.1268 1412.74 61.2993 1417.04 64.5741C1421.33 67.849 1422.16 73.9861 1418.89 78.2818C1415.61 82.5775 1409.47 83.4051 1405.18 80.1303C1400.88 76.8554 1400.06 70.7183 1403.33 66.4225ZM83.5484 72.2252C86.4404 68.7635 91.5913 68.3016 95.0531 71.1937C98.5149 74.0858 98.9767 79.2366 96.0846 82.6984C93.1925 86.1602 88.0417 86.622 84.5799 83.73C81.1181 80.8379 80.6563 75.687 83.5484 72.2252ZM92.4885 74.2634C90.7221 72.7877 88.0938 73.0233 86.6181 74.7898C85.1423 76.5562 85.378 79.1845 87.1444 80.6602C88.9109 82.136 91.5392 81.9003 93.0149 80.1339C94.4906 78.3674 94.255 75.7391 92.4885 74.2634ZM45.3231 75.6527C48.2152 72.1909 53.366 71.7291 56.8278 74.6212C60.2896 77.5132 60.7514 82.6641 57.8594 86.1259C54.9673 89.5877 49.8164 90.0495 46.3546 87.1574C42.8928 84.2653 42.431 79.1145 45.3231 75.6527ZM54.2633 77.6909C52.4968 76.2151 49.8685 76.4508 48.3928 78.2172C46.9171 79.9837 47.1527 82.612 48.9192 84.0877C50.6856 85.5634 53.3139 85.3278 54.7896 83.5613C56.2654 81.7949 56.0297 79.1666 54.2633 77.6909ZM1421.08 115.736C1418.54 113.8 1414.92 114.289 1412.98 116.828C1411.05 119.367 1411.54 122.994 1414.07 124.93C1416.61 126.865 1420.24 126.376 1422.18 123.837C1424.11 121.298 1423.62 117.671 1421.08 115.736ZM1409.8 114.403C1413.08 110.107 1419.21 109.28 1423.51 112.555C1427.8 115.829 1428.63 121.967 1425.36 126.262C1422.08 130.558 1415.94 131.386 1411.65 128.111C1407.35 124.836 1406.53 118.699 1409.8 114.403ZM925.671 129.28C926.634 128.74 927.853 129.084 928.393 130.047L948.534 165.982C949.074 166.945 948.731 168.164 947.767 168.704C946.804 169.244 945.585 168.901 945.045 167.937L924.904 132.003C924.364 131.039 924.707 129.82 925.671 129.28ZM951.704 137.998C950.002 137.519 948.234 138.51 947.755 140.212C947.275 141.914 948.267 143.682 949.969 144.161C951.67 144.641 953.439 143.65 953.918 141.948C954.397 140.246 953.406 138.477 951.704 137.998ZM943.905 139.127C944.983 135.299 948.96 133.07 952.789 134.148C956.617 135.226 958.847 139.204 957.768 143.032C956.69 146.86 952.712 149.09 948.884 148.012C945.056 146.933 942.826 142.956 943.905 139.127ZM923.47 153.823C921.768 153.344 920 154.335 919.52 156.037C919.041 157.739 920.032 159.507 921.734 159.986C923.436 160.466 925.204 159.475 925.683 157.773C926.163 156.071 925.172 154.302 923.47 153.823ZM915.67 154.952C916.748 151.124 920.726 148.895 924.554 149.973C928.383 151.051 930.612 155.029 929.534 158.857C928.455 162.685 924.478 164.915 920.649 163.837C916.821 162.758 914.592 158.781 915.67 154.952ZM1367.88 174.148C1368.87 174.631 1369.29 175.828 1368.8 176.822L1366.27 182.019C1366.66 181.646 1367.13 181.349 1367.67 181.162C1369.65 180.479 1371.8 181.529 1372.49 183.506C1373.17 185.483 1372.12 187.639 1370.14 188.321C1368.16 189.004 1366.01 187.954 1365.33 185.977C1365.14 185.436 1365.08 184.882 1365.14 184.348L1362.61 189.546C1362.12 190.539 1360.93 190.952 1359.93 190.469C1358.94 189.986 1358.53 188.789 1359.01 187.795L1361.54 182.598C1361.16 182.971 1360.68 183.268 1360.14 183.455C1358.17 184.138 1356.01 183.088 1355.33 181.111C1354.65 179.134 1355.7 176.978 1357.67 176.296C1359.65 175.613 1361.8 176.663 1362.49 178.64C1362.67 179.181 1362.73 179.735 1362.68 180.269L1365.2 175.071C1365.69 174.078 1366.89 173.665 1367.88 174.148ZM1358.71 179.945C1358.74 180.056 1358.87 180.115 1358.98 180.077C1359.09 180.038 1359.15 179.917 1359.11 179.806C1359.07 179.695 1358.95 179.636 1358.84 179.674C1358.73 179.712 1358.67 179.834 1358.71 179.945ZM73.7463 177.909C74.8414 177.765 75.8457 178.537 75.9893 179.632L81.458 221.328C81.6016 222.423 80.8302 223.428 79.735 223.571C78.6399 223.715 77.6356 222.944 77.492 221.848L72.0233 180.152C71.8797 179.057 72.6511 178.052 73.7463 177.909ZM1368.7 184.811C1368.74 184.922 1368.86 184.981 1368.98 184.943C1369.09 184.905 1369.15 184.783 1369.11 184.672C1369.07 184.561 1368.95 184.502 1368.84 184.54C1368.72 184.579 1368.67 184.7 1368.7 184.811ZM95.1376 195.967C93.6878 194.853 91.6097 195.126 90.4961 196.575C89.3826 198.025 89.6551 200.103 91.1049 201.217C92.5547 202.33 94.6327 202.058 95.7463 200.608C96.8599 199.158 96.5873 197.08 95.1376 195.967ZM87.3239 194.139C89.7832 190.937 94.3724 190.335 97.5742 192.794C100.776 195.254 101.378 199.843 98.9185 203.045C96.4592 206.246 91.87 206.848 88.6683 204.389C85.4665 201.93 84.8646 197.341 87.3239 194.139ZM62.3764 200.263C60.9266 199.15 58.8486 199.422 57.735 200.872C56.6214 202.322 56.8939 204.4 58.3437 205.514C59.7935 206.627 61.8715 206.355 62.9851 204.905C64.0987 203.455 63.8261 201.377 62.3764 200.263ZM54.5627 198.436C57.022 195.234 61.6112 194.632 64.813 197.091C68.0147 199.551 68.6166 204.14 66.1573 207.341C63.698 210.543 59.1089 211.145 55.9071 208.686C52.7053 206.227 52.1035 201.637 54.5627 198.436ZM21.6079 206.886C22.1225 202.404 26.1726 199.188 30.6541 199.703C35.1355 200.218 38.3513 204.268 37.8366 208.749C37.322 213.231 33.2719 216.446 28.7905 215.932C24.309 215.417 21.0933 211.367 21.6079 206.886ZM30.1977 203.677C27.911 203.414 25.8444 205.055 25.5818 207.342C25.3192 209.629 26.9601 211.695 29.2468 211.958C31.5335 212.22 33.6002 210.58 33.8628 208.293C34.1253 206.006 32.4845 203.939 30.1977 203.677ZM282.668 234.341C283.687 233.916 284.858 234.397 285.283 235.417L301.633 274.601C302.058 275.621 301.577 276.792 300.557 277.217C299.538 277.643 298.367 277.161 297.941 276.142L281.592 236.957C281.167 235.938 281.648 234.766 282.668 234.341ZM308.284 246.247C306.568 245.541 304.603 246.361 303.898 248.078C303.192 249.795 304.011 251.759 305.728 252.465C307.445 253.171 309.409 252.351 310.115 250.634C310.821 248.917 310.001 246.953 308.284 246.247ZM300.198 246.557C301.744 242.797 306.046 241.002 309.806 242.548C313.566 244.094 315.36 248.396 313.814 252.156C312.268 255.916 307.967 257.71 304.207 256.164C300.447 254.618 298.652 250.317 300.198 246.557ZM976.613 247.755C974.074 245.82 970.447 246.309 968.511 248.848C966.575 251.387 967.065 255.014 969.603 256.949C972.142 258.885 975.769 258.396 977.705 255.857C979.641 253.318 979.151 249.691 976.613 247.755ZM965.33 246.423C968.605 242.127 974.742 241.299 979.038 244.574C983.333 247.849 984.161 253.986 980.886 258.282C977.611 262.578 971.474 263.405 967.178 260.13C962.883 256.855 962.055 250.718 965.33 246.423ZM477.901 242.673C478.987 242.874 479.705 243.917 479.504 245.003L468.301 305.595C468.1 306.681 467.057 307.399 465.97 307.198C464.884 306.997 464.167 305.954 464.367 304.868L475.57 244.276C475.771 243.19 476.815 242.472 477.901 242.673ZM82.6126 251.755C80.0737 249.82 76.4465 250.309 74.511 252.848C72.5755 255.386 73.0646 259.014 75.6035 260.949C78.1423 262.885 81.7695 262.396 83.705 259.857C85.6406 257.318 85.1515 253.691 82.6126 251.755ZM71.3299 250.423C74.6048 246.127 80.7419 245.299 85.0377 248.574C89.3334 251.849 90.1609 257.986 86.8861 262.282C83.6112 266.578 77.4741 267.405 73.1784 264.13C68.8827 260.855 68.0551 254.718 71.3299 250.423ZM277.497 259.093C275.78 258.387 273.816 259.207 273.11 260.924C272.404 262.641 273.223 264.605 274.94 265.311C276.657 266.017 278.621 265.197 279.327 263.48C280.033 261.763 279.214 259.799 277.497 259.093ZM269.41 259.403C270.956 255.643 275.258 253.848 279.018 255.394C282.778 256.94 284.573 261.242 283.027 265.002C281.48 268.762 277.179 270.556 273.419 269.01C269.659 267.464 267.864 263.163 269.41 259.403ZM452.894 267.258C451.085 264.628 447.486 263.963 444.855 265.772C442.225 267.581 441.56 271.18 443.369 273.811C445.179 276.441 448.778 277.106 451.408 275.297C454.038 273.488 454.704 269.889 452.894 267.258ZM442.588 262.476C447.039 259.415 453.128 260.541 456.19 264.991C459.251 269.442 458.125 275.531 453.675 278.592C449.225 281.654 443.135 280.528 440.074 276.078C437.012 271.627 438.138 265.538 442.588 262.476ZM1342.98 266.097C1341.84 265.656 1340.56 266.219 1340.12 267.354C1339.68 268.49 1340.24 269.768 1341.38 270.209C1342.51 270.65 1343.79 270.087 1344.23 268.952C1344.68 267.816 1344.11 266.538 1342.98 266.097ZM1336.39 265.906C1337.63 262.711 1341.23 261.127 1344.43 262.369C1347.62 263.61 1349.2 267.206 1347.96 270.401C1346.72 273.595 1343.13 275.179 1339.93 273.938C1336.74 272.696 1335.15 269.1 1336.39 265.906ZM500.502 276.061C498.693 273.43 495.094 272.765 492.463 274.574C489.833 276.384 489.168 279.983 490.977 282.613C492.787 285.243 496.386 285.909 499.016 284.099C501.646 282.29 502.312 278.691 500.502 276.061ZM490.196 271.279C494.647 268.217 500.736 269.343 503.798 273.794C506.859 278.244 505.733 284.333 501.283 287.395C496.833 290.456 490.743 289.33 487.682 284.88C484.62 280.43 485.746 274.34 490.196 271.279ZM1008.86 271.958C1009.01 273.052 1008.24 274.059 1007.14 274.207L946.078 282.442C944.983 282.589 943.976 281.822 943.829 280.727C943.681 279.632 944.449 278.625 945.543 278.478L1006.61 270.243C1007.7 270.095 1008.71 270.863 1008.86 271.958ZM1364.52 272.611C1364.97 273.622 1364.51 274.802 1363.5 275.247L1333.02 288.671C1332.01 289.116 1330.82 288.657 1330.38 287.646C1329.93 286.635 1330.39 285.455 1331.4 285.01L1361.89 271.587C1362.9 271.141 1364.08 271.6 1364.52 272.611ZM114.859 275.958C115.006 277.052 114.239 278.059 113.144 278.207L52.0779 286.442C50.9833 286.589 49.9762 285.822 49.8286 284.727C49.681 283.632 50.4487 282.625 51.5434 282.478L112.609 274.243C113.704 274.095 114.711 274.863 114.859 275.958ZM1353.52 290.048C1352.39 289.607 1351.11 290.17 1350.67 291.305C1350.23 292.441 1350.79 293.719 1351.93 294.16C1353.06 294.601 1354.34 294.038 1354.78 292.903C1355.22 291.767 1354.66 290.489 1353.52 290.048ZM1346.94 289.857C1348.18 286.662 1351.78 285.078 1354.97 286.32C1358.17 287.561 1359.75 291.157 1358.51 294.352C1357.27 297.546 1353.67 299.13 1350.48 297.888C1347.28 296.647 1345.7 293.051 1346.94 289.857ZM1133.86 291.607C1133.79 291.056 1133.29 290.665 1132.74 290.734C1132.18 290.803 1131.79 291.307 1131.86 291.859C1131.93 292.411 1132.43 292.802 1132.99 292.732C1133.54 292.663 1133.93 292.159 1133.86 291.607ZM1132.24 286.765C1134.98 286.42 1137.48 288.364 1137.83 291.108C1138.17 293.851 1136.23 296.356 1133.49 296.701C1130.74 297.046 1128.24 295.102 1127.89 292.358C1127.55 289.615 1129.49 287.111 1132.24 286.765ZM1116.14 290.594C1116.82 289.721 1118.07 289.563 1118.95 290.241L1137.75 304.845C1138.63 305.522 1138.79 306.779 1138.11 307.651C1137.43 308.524 1136.17 308.682 1135.3 308.005L1116.49 293.4C1115.62 292.723 1115.46 291.466 1116.14 290.594ZM983.083 295.736C980.544 293.8 976.917 294.289 974.982 296.828C973.046 299.367 973.535 302.994 976.074 304.93C978.613 306.865 982.24 306.376 984.176 303.837C986.111 301.298 985.622 297.671 983.083 295.736ZM971.801 294.403C975.075 290.107 981.213 289.28 985.508 292.555C989.804 295.829 990.632 301.967 987.357 306.262C984.082 310.558 977.945 311.386 973.649 308.111C969.353 304.836 968.526 298.699 971.801 294.403ZM89.0832 299.736C86.5443 297.8 82.9171 298.289 80.9816 300.828C79.0461 303.367 79.5352 306.994 82.0741 308.93C84.6129 310.865 88.2401 310.376 90.1757 307.837C92.1112 305.298 91.6221 301.671 89.0832 299.736ZM77.8006 298.403C81.0754 294.107 87.2126 293.28 91.5083 296.555C95.804 299.829 96.6315 305.967 93.3567 310.262C90.0819 314.558 83.9447 315.386 79.649 312.111C75.3533 308.836 74.5257 302.699 77.8006 298.403ZM1122.39 306.386C1122.32 305.835 1121.81 305.444 1121.26 305.513C1120.71 305.582 1120.32 306.086 1120.39 306.638C1120.46 307.19 1120.96 307.581 1121.51 307.511C1122.06 307.442 1122.45 306.938 1122.39 306.386ZM1120.76 301.544C1123.5 301.199 1126.01 303.143 1126.35 305.887C1126.7 308.631 1124.75 311.135 1122.01 311.48C1119.27 311.825 1116.76 309.881 1116.42 307.137C1116.07 304.394 1118.02 301.89 1120.76 301.544ZM607.529 306.784C605.826 306.122 603.907 306.967 603.245 308.671C602.583 310.375 603.428 312.293 605.132 312.955C606.836 313.617 608.754 312.772 609.416 311.068C610.078 309.364 609.234 307.446 607.529 306.784ZM599.517 307.222C600.979 303.459 605.215 301.593 608.978 303.056C612.741 304.518 614.607 308.754 613.144 312.517C611.682 316.28 607.446 318.145 603.683 316.683C599.92 315.221 598.055 310.985 599.517 307.222ZM634.063 315.709C634.508 316.72 634.049 317.901 633.039 318.346L594.551 335.294C593.54 335.739 592.36 335.28 591.915 334.269C591.47 333.258 591.928 332.078 592.939 331.633L631.427 314.685C632.438 314.24 633.618 314.698 634.063 315.709ZM1415.61 329.81C1416.63 329.378 1417.8 329.851 1418.23 330.867L1420.5 336.187C1420.47 335.651 1420.55 335.1 1420.77 334.569C1421.55 332.63 1423.75 331.691 1425.69 332.473C1427.63 333.255 1428.57 335.461 1427.79 337.401C1427.01 339.341 1424.8 340.279 1422.86 339.497C1422.33 339.283 1421.88 338.963 1421.51 338.57L1423.77 343.89C1424.2 344.906 1423.73 346.081 1422.71 346.513C1421.7 346.945 1420.52 346.472 1420.09 345.456L1417.83 340.136C1417.86 340.672 1417.77 341.223 1417.56 341.754C1416.78 343.694 1414.57 344.632 1412.63 343.85C1410.69 343.068 1409.75 340.862 1410.53 338.922C1411.32 336.982 1413.52 336.044 1415.46 336.826C1415.99 337.04 1416.45 337.36 1416.81 337.753L1414.55 332.433C1414.12 331.417 1414.59 330.242 1415.61 329.81ZM1424.2 336.183C1424.31 336.227 1424.43 336.174 1424.48 336.065C1424.52 335.956 1424.47 335.831 1424.36 335.787C1424.25 335.743 1424.12 335.796 1424.08 335.905C1424.04 336.015 1424.09 336.139 1424.2 336.183ZM620.846 337.024C619.142 336.362 617.224 337.207 616.561 338.911C615.899 340.615 616.744 342.533 618.448 343.195C620.152 343.857 622.07 343.012 622.732 341.308C623.394 339.604 622.55 337.686 620.846 337.024ZM1413.97 340.536C1414.08 340.58 1414.2 340.527 1414.24 340.418C1414.29 340.309 1414.23 340.184 1414.13 340.14C1414.02 340.096 1413.89 340.149 1413.85 340.258C1413.8 340.367 1413.86 340.492 1413.97 340.536Z" fill="#AEFFA0" fill-opacity="0.33"/>
</g>
<defs>
<filter id="filter0_d_376_11625" x="0" y="0" width="1448" height="357" filterUnits="userSpaceOnUse" color-interpolation-filters="sRGB">
<feFlood flood-opacity="0" result="BackgroundImageFix"/>
<feColorMatrix in="SourceAlpha" type="matrix" values="0 0 0 0 0 0 0 0 0 0 0 0 0 0 0 0 0 0 127 0" result="hardAlpha"/>
<feOffset dy="4"/>
<feGaussianBlur stdDeviation="2"/>
<feComposite in2="hardAlpha" operator="out"/>
<feColorMatrix type="matrix" values="0 0 0 0 0 0 0 0 0 0 0 0 0 0 0 0 0 0 0.25 0"/>
<feBlend mode="normal" in2="BackgroundImageFix" result="effect1_dropShadow_376_11625"/>
<feBlend mode="normal" in="SourceGraphic" in2="effect1_dropShadow_376_11625" result="shape"/>
</filter>
<clipPath id="clip0_376_11625">
<rect width="1440" height="349" fill="white" transform="translate(4)"/>
</clipPath>
</defs>
</svg>
