<svg width="57" height="57" viewBox="0 0 57 57" fill="none" xmlns="http://www.w3.org/2000/svg">
<path d="M27.7168 30.3908C27.7168 27.7053 29.8938 25.5283 32.5793 25.5283H48.3825C51.068 25.5283 53.2451 27.7053 53.2451 30.3908V44.9784C53.2451 47.6639 51.068 49.841 48.3825 49.841H45.9513L40.4809 54.0957L34.4028 49.841C31.7173 49.841 27.7168 47.6639 27.7168 44.9784V30.3908Z" fill="white"/>
<path d="M48.6368 49.3325H47.5956C46.4995 49.3325 45.4583 49.7572 44.6911 50.5244L42.3484 52.8398C41.2798 53.8947 39.5399 53.8947 38.4713 52.8398L36.1286 50.5244C35.3613 49.7572 34.3064 49.3325 33.2241 49.3325H32.1966C29.9224 49.3325 28.0866 47.5105 28.0866 45.2636V30.3168C28.0866 28.07 29.9224 26.2479 32.1966 26.2479H48.6368C50.911 26.2479 52.7468 28.07 52.7468 30.3168V45.2636C52.7468 47.4968 50.911 49.3325 48.6368 49.3325Z" stroke="#464646" stroke-width="1.82345" stroke-miterlimit="10" stroke-linecap="round" stroke-linejoin="round"/>
<path d="M21.8337 0.209047L3.5271 7.96047C2.55159 8.37352 2.5344 9.74984 3.49929 10.1871L22.243 18.6816C22.5582 18.8245 22.9194 18.8262 23.236 18.6863L41.0505 10.816C42.0089 10.3926 42.0185 9.03614 41.0663 8.59916L22.8147 0.223613C22.5043 0.0811577 22.1483 0.0758708 21.8337 0.209047Z" fill="#5201A8" fill-opacity="0.2"/>
<path d="M23.439 47.5113L22.7466 47.8578L2.39748 38.8139V15.0649L22.2894 23.9058C22.4427 23.9739 22.6086 24.0091 22.7764 24.0091C22.9442 24.0091 23.1101 23.9739 23.2634 23.9058L43.1553 15.0649V21.0979C43.1584 21.4138 43.286 21.7157 43.5105 21.938C43.735 22.1603 44.0382 22.285 44.3541 22.285C44.67 22.285 44.9732 22.1603 45.1976 21.938C45.4221 21.7157 45.5498 21.4138 45.5528 21.0979V13.2203C45.5528 12.9884 45.4856 12.7615 45.3592 12.5671C45.2329 12.3727 45.0529 12.2191 44.8411 12.1249L23.2634 2.53481C23.1101 2.46679 22.9442 2.43164 22.7764 2.43164C22.6087 2.43164 22.4427 2.46679 22.2894 2.53481L0.711726 12.1249C0.499887 12.2191 0.319909 12.3727 0.193589 12.5671C0.0672695 12.7615 2.52552e-05 12.9884 0 13.2203V39.593C3.39763e-05 39.8248 0.0672859 40.0516 0.193609 40.246C0.319932 40.4404 0.499905 40.5939 0.711726 40.6881L22.2894 50.2781C22.451 50.3501 22.6264 50.3854 22.8033 50.3815C22.9801 50.3776 23.1538 50.3346 23.3121 50.2556L24.5109 49.6563C24.6526 49.5864 24.7791 49.4892 24.8831 49.3703C24.9872 49.2513 25.0666 49.113 25.117 48.9633C25.1674 48.8135 25.1877 48.6553 25.1767 48.4976C25.1657 48.34 25.1237 48.1861 25.053 48.0448C24.9824 47.9035 24.8845 47.7775 24.7649 47.6741C24.6454 47.5708 24.5067 47.4921 24.3566 47.4425C24.2066 47.393 24.0482 47.3736 23.8907 47.3855C23.7331 47.3973 23.5799 47.4399 23.439 47.5113ZM22.7759 21.4986L14.2952 17.7291L32.8535 9.48114C32.8748 9.47158 32.8926 9.45765 32.913 9.44742L41.4024 13.2203L22.7759 21.4986ZM22.7759 4.94185L29.9697 8.13894L11.5006 16.3474C11.453 16.3706 11.407 16.3968 11.363 16.4261L4.15067 13.2203L22.7759 4.94185Z" fill="#464646"/>
<path d="M43.7563 31.7148L45.3485 32.3648L41.2125 44.0449H39.6203L35.4844 32.3648L37.0765 31.7148L40.4073 41.2038L43.7563 31.7148Z" fill="#5201A8" fill-opacity="0.2"/>
</svg>
